HIERARCHY
ROOT Hips
{
	OFFSET 0.00000 0.00000 0.00000
	CHANNELS 6 Xposition Yposition Zposition Zrotation Yrotation Xrotation 
	JOINT LHipJoint
	{
		OFFSET 0 0 0
		CHANNELS 3 Zrotation Yrotation Xrotation
		JOINT LeftUpLeg
		{
			OFFSET 1.56857 -1.73443 1.15205
			CHANNELS 3 Zrotation Yrotation Xrotation
			JOINT LeftLeg
			{
				OFFSET 2.39362 -6.57643 0.00000
				CHANNELS 3 Zrotation Yrotation Xrotation
				JOINT LeftFoot
				{
					OFFSET 2.50952 -6.89485 0.00000
					CHANNELS 3 Zrotation Yrotation Xrotation
					JOINT LeftToeBase
					{
						OFFSET 0.17171 -0.47178 1.88682
						CHANNELS 3 Zrotation Yrotation Xrotation
						End Site
						{
							OFFSET 0.00000 -0.00000 0.98146
						}
					}
				}
			}
		}
	}
	JOINT RHipJoint
	{
		OFFSET 0 0 0
		CHANNELS 3 Zrotation Yrotation Xrotation
		JOINT RightUpLeg
		{
			OFFSET -1.28153 -1.73443 1.15205
			CHANNELS 3 Zrotation Yrotation Xrotation
			JOINT RightLeg
			{
				OFFSET -2.26861 -6.23296 0.00000
				CHANNELS 3 Zrotation Yrotation Xrotation
				JOINT RightFoot
				{
					OFFSET -2.54143 -6.98254 0.00000
					CHANNELS 3 Zrotation Yrotation Xrotation
					JOINT RightToeBase
					{
						OFFSET -0.23309 -0.64041 1.93119
						CHANNELS 3 Zrotation Yrotation Xrotation
						End Site
						{
							OFFSET -0.00000 -0.00000 1.02013
						}
					}
				}
			}
		}
	}
	JOINT LowerBack
	{
		OFFSET 0 0 0
		CHANNELS 3 Zrotation Yrotation Xrotation
		JOINT Spine
		{
			OFFSET -0.07096 2.10460 -0.27878
			CHANNELS 3 Zrotation Yrotation Xrotation
			JOINT Spine1
			{
				OFFSET -0.00826 2.13662 -0.08279
				CHANNELS 3 Zrotation Yrotation Xrotation
				JOINT Neck
				{
					OFFSET 0 0 0
					CHANNELS 3 Zrotation Yrotation Xrotation
					JOINT Neck1
					{
						OFFSET 0.03239 1.77799 0.24435
						CHANNELS 3 Zrotation Yrotation Xrotation
						JOINT Head
						{
							OFFSET 0.01026 1.74194 -0.49664
							CHANNELS 3 Zrotation Yrotation Xrotation
							End Site
							{
								OFFSET 0.00170 1.83057 -0.19653
							}
						}
					}
				}
				JOINT LeftShoulder
				{
					OFFSET 0 0 0
					CHANNELS 3 Zrotation Yrotation Xrotation
					JOINT LeftArm
					{
						OFFSET 3.19178 1.35907 -0.31412
						CHANNELS 3 Zrotation Yrotation Xrotation
						JOINT LeftForeArm
						{
							OFFSET 4.85247 -0.00000 -0.00000
							CHANNELS 3 Zrotation Yrotation Xrotation
							JOINT LeftHand
							{
								OFFSET 3.55584 -0.00000 0.00000
								CHANNELS 3 Zrotation Yrotation Xrotation
								JOINT LeftFingerBase
								{
									OFFSET 0 0 0
									CHANNELS 3 Zrotation Yrotation Xrotation
									JOINT LeftHandIndex1
									{
										OFFSET 0.69320 -0.00000 0.00000
										CHANNELS 3 Zrotation Yrotation Xrotation
										End Site
										{
											OFFSET 0.55888 -0.00000 0.00000
										}
									}
								}
								JOINT LThumb
								{
									OFFSET 0 0 0
									CHANNELS 3 Zrotation Yrotation Xrotation
									End Site
									{
										OFFSET 0.56741 -0.00000 0.56741
									}
								}
							}
						}
					}
				}
				JOINT RightShoulder
				{
					OFFSET 0 0 0
					CHANNELS 3 Zrotation Yrotation Xrotation
					JOINT RightArm
					{
						OFFSET -3.28999 1.24191 -0.26899
						CHANNELS 3 Zrotation Yrotation Xrotation
						JOINT RightForeArm
						{
							OFFSET -4.64462 -0.00000 0.00000
							CHANNELS 3 Zrotation Yrotation Xrotation
							JOINT RightHand
							{
								OFFSET -3.40703 -0.00000 0.00000
								CHANNELS 3 Zrotation Yrotation Xrotation
								JOINT RightFingerBase
								{
									OFFSET 0 0 0
									CHANNELS 3 Zrotation Yrotation Xrotation
									JOINT RightHandIndex1
									{
										OFFSET -0.61958 -0.00000 0.00000
										CHANNELS 3 Zrotation Yrotation Xrotation
										End Site
										{
											OFFSET -0.49952 -0.00000 0.00000
										}
									}
								}
								JOINT RThumb
								{
									OFFSET 0 0 0
									CHANNELS 3 Zrotation Yrotation Xrotation
									End Site
									{
										OFFSET -0.50715 -0.00000 0.50715
									}
								}
							}
						}
					}
				}
			}
		}
	}
}
MOTION
Frames: 6
Frame Time: .0083333
5.7764 18.0356 -1.5926 -116.4310 68.9676 -115.3230 0.0000 0.0000 0.0000 0.9527 -11.9514 -0.8598 0.5656 4.8168 13.3867 0.5036 6.5212 -17.3608 0.3483 3.7918 10.4916 0.0000 0.0000 0.0000 -14.6160 13.9811 -1.4468 -13.4376 -18.9345 70.4793 -1.5023 -12.7963 22.3960 -3.1415 -10.9206 32.0126 -5.7530 1.7386 14.8067 -1.6881 1.6578 4.5746 1.1737 0.9408 -3.5409 -1.6938 -1.1811 -16.9210 -18.4150 8.5524 34.8802 -6.0779 1.5145 16.5089 0.0000 -0.0000 0.0000 -82.0917 22.5004 39.8191 23.7393 -34.8873 -7.5569 -0.0000 0.0000 -0.3617 4.0597 -19.4411 -1.3532 -7.1250 0.0000 -0.0000 -15.6005 11.0286 12.8252 0.0000 -0.0000 0.0000 87.8221 3.9848 -4.9837 -35.8332 45.3980 -15.4036 0.0000 -0.0000 -48.1967 -37.3206 -34.5415 23.3770 7.1250 -0.0000 -0.0000 -7.0449 -70.7451 4.3345
5.7638 18.0439 -1.6111 -115.5090 69.2012 -114.3840 0.0000 0.0000 0.0000 0.8324 -11.7148 -0.6525 0.5360 4.6910 13.0292 0.4942 6.7574 -17.4481 0.3776 3.9467 10.9268 0.0000 0.0000 0.0000 -14.8073 12.6589 -2.1861 -12.1172 -18.4397 66.3598 -1.3517 -13.7532 21.5505 -2.9901 -10.6789 31.2045 -5.8096 1.8849 14.8617 -1.8955 1.8405 4.6297 0.9537 1.0338 -3.5177 -1.8204 -1.0767 -17.0270 -17.9966 8.7771 35.4251 -5.8755 1.6186 16.8159 0.0000 -0.0000 0.0000 -81.6793 22.4047 39.2392 24.2734 -35.4520 -7.8646 -0.0000 0.0000 -0.9539 5.3673 -19.1629 -1.7665 -7.1250 0.0000 -0.0000 -14.7811 11.2139 12.0425 0.0000 -0.0000 0.0000 88.0385 3.8325 -3.5407 -35.1653 44.9298 -14.9300 0.0000 -0.0000 -48.5337 -34.1851 -35.3245 21.4414 7.1250 -0.0000 -0.0000 -1.4784 -70.5612 0.9022
5.7558 18.0517 -1.6286 -114.4550 69.4023 -113.3450 0.0000 0.0000 0.0000 0.7711 -11.3923 -0.3553 0.4967 4.5183 12.5396 0.4756 7.0318 -17.4665 0.3798 3.9582 10.9590 0.0000 0.0000 0.0000 -14.7400 11.5070 -2.6707 -10.7771 -17.8243 62.0556 -1.1773 -14.8047 20.5961 -2.8307 -10.4159 30.3343 -5.8462 2.0266 14.8735 -2.0689 2.0282 4.7250 0.7596 1.1279 -3.4285 -1.8561 -1.0467 -16.9315 -17.9458 8.9180 35.6824 -5.8449 1.6787 16.9471 0.0000 -0.0000 0.0000 -81.3414 22.1839 38.6343 24.7076 -35.9037 -8.1178 -0.0000 0.0000 -1.2046 6.2621 -19.8038 -2.1291 -7.1250 0.0000 -0.0000 -14.1967 10.5294 11.7391 0.0000 -0.0000 0.0000 88.2382 3.7443 -2.0946 -34.4887 44.4435 -14.4541 0.0000 -0.0000 -48.6262 -31.0808 -35.6488 19.3569 7.1250 -0.0000 -0.0000 3.5020 -69.8952 -2.0857
5.7437 18.0585 -1.6476 -113.1270 69.4821 -112.0350 0.0000 0.0000 0.0000 0.8922 -11.0348 -0.1061 0.4595 4.3485 12.0592 0.4576 7.3122 -17.5028 0.3616 3.8632 10.6921 0.0000 0.0000 0.0000 -14.4455 10.3962 -3.2503 -9.5281 -17.1358 57.8992 -0.9642 -15.8971 19.4183 -2.7535 -10.2848 29.9041 -5.7637 2.1648 14.9033 -2.1493 2.2301 4.8343 0.5939 1.2278 -3.3342 -1.9148 -0.9556 -16.9714 -17.8869 9.1524 35.8890 -5.7857 1.7692 17.1008 0.0000 0.0000 0.0000 -81.1595 21.7529 37.9994 25.0313 -36.2360 -8.3084 -0.0000 0.0000 -1.5338 7.3581 -20.5250 -2.5924 -7.1250 0.0000 -0.0000 -13.4925 9.7423 11.3424 0.0000 0.0000 0.0000 88.2492 3.6303 -0.4393 -33.8614 43.9818 -14.0167 0.0000 -0.0000 -48.4365 -28.1152 -35.2682 17.1451 7.1250 -0.0000 -0.0000 7.3734 -68.5710 -4.1784
5.7308 18.0649 -1.6686 -111.9380 69.6331 -110.7910 0.0000 0.0000 0.0000 0.8679 -10.8048 0.0435 0.4354 4.2342 11.7365 0.4515 7.5525 -17.6473 0.3695 3.9045 10.8081 0.0000 0.0000 0.0000 -14.2345 9.1885 -3.8942 -8.3553 -16.3744 53.8324 -0.6996 -17.1746 17.9762 -2.8787 -10.4960 30.5985 -5.8074 2.2736 14.8794 -2.2179 2.3765 4.9183 0.5230 1.2997 -3.2383 -1.7501 -0.7836 -16.9980 -17.9898 9.4846 36.0308 -5.8210 1.9170 17.2556 -0.0000 0.0000 0.0000 -81.1366 21.3553 37.1150 25.4007 -36.6107 -8.5277 -0.0000 0.0000 -1.8812 8.7599 -20.4185 -3.0772 -7.1250 0.0000 -0.0000 -12.6064 9.7290 10.5605 -0.0000 0.0000 0.0000 88.1099 3.3973 1.5634 -33.2879 43.5501 -13.6200 0.0000 -0.0000 -47.3860 -25.6999 -34.2142 15.1421 7.1250 -0.0000 -0.0000 9.6456 -66.7821 -5.0817
5.7244 18.0717 -1.6907 -110.9790 69.9571 -109.7670 0.0000 0.0000 0.0000 0.5661 -10.5976 0.2339 0.4161 4.1403 11.4717 0.4578 7.6972 -17.8530 0.4054 4.0877 11.3234 0.0000 0.0000 0.0000 -14.1225 8.0269 -4.2737 -7.1966 -15.4953 49.6141 -0.4032 -18.7708 16.5218 -3.2471 -11.0848 32.5663 -5.9861 2.3945 14.8078 -2.3770 2.5161 4.9459 0.4343 1.3693 -3.1765 -1.5274 -0.6435 -16.8757 -18.1239 9.7744 36.2233 -5.8938 2.0605 17.4004 -0.0000 0.0000 0.0000 -81.0210 21.1996 36.1543 25.8131 -37.0235 -8.7748 -0.0000 0.0000 -1.8676 10.2896 -20.2245 -3.5911 -7.1250 0.0000 -0.0000 -11.6335 9.7824 9.6951 -0.0000 0.0000 0.0000 88.0351 2.9132 3.6975 -32.7654 43.1490 -13.2614 0.0000 -0.0000 -45.6587 -23.9776 -33.0270 13.6262 7.1250 -0.0000 -0.0000 10.8196 -65.1036 -5.2879
